<svg xmlns="http://www.w3.org/2000/svg" viewBox="0 0 375 346.51">
  <defs>
    <style>.cls-1{fill:#0033ad;}</style>
  </defs>
  <title>Cardano</title>
  <g id="Layer_2" data-name="Layer 2">
    <g id="Layer_1-2" data-name="Layer 1">
      <path class="cls-1" d="M102.76,172a25.31,25.31,0,0,0,24.89-25.71A25.31,25.31,0,0,0,102.76,120.6a25.31,25.31,0,0,0-24.89,25.71A25.31,25.31,0,0,0,102.76,172Z"/>
      <path class="cls-1" d="M187.5,86.59a25.31,25.31,0,0,0,24.89-25.71A25.31,25.31,0,0,0,187.5,35.17a25.31,25.31,0,0,0-24.89,25.71A25.31,25.31,0,0,0,187.5,86.59Z"/>
      <path class="cls-1" d="M272.24,172a25.31,25.31,0,0,0,24.89-25.71,25.31,25.31,0,0,0-24.89-25.71,25.31,25.31,0,0,0-24.89,25.71A25.31,25.31,0,0,0,272.24,172Z"/>
      <path class="cls-1" d="M187.5,257.38a25.31,25.31,0,0,0,24.89-25.71,25.31,25.31,0,0,0-24.89-25.71,25.31,25.31,0,0,0-24.89,25.71A25.31,25.31,0,0,0,187.5,257.38Z"/>
      <path class="cls-1" d="M102.76,225.91a25.31,25.31,0,0,0,24.89-25.71,25.31,25.31,0,0,0-24.89-25.71,25.31,25.31,0,0,0-24.89,25.71A25.31,25.31,0,0,0,102.76,225.91Z"/>
      <path class="cls-1" d="M272.24,225.91a25.31,25.31,0,0,0,24.89-25.71,25.31,25.31,0,0,0-24.89-25.71,25.31,25.31,0,0,0-24.89,25.71A25.31,25.31,0,0,0,272.24,225.91Z"/>
      <path class="cls-1" d="M187.5,311.34a25.31,25.31,0,0,0,24.89-25.71,25.31,25.31,0,0,0-24.89-25.71,25.31,25.31,0,0,0-24.89,25.71A25.31,25.31,0,0,0,187.5,311.34Z"/>
      <circle class="cls-1" cx="30.66" cy="198.89" r="17.53"/>
      <circle class="cls-1" cx="74.4" cy="69.39" r="10.82"/>
      <circle class="cls-1" cx="300.6" cy="69.39" r="10.82"/>
      <circle class="cls-1" cx="344.34" cy="198.89" r="17.53"/>
      <circle class="cls-1" cx="74.4" cy="277.12" r="10.82"/>
      <circle class="cls-1" cx="300.6" cy="277.12" r="10.82"/>
      <circle class="cls-1" cx="187.5" cy="0" r="13.09"/>
      <circle class="cls-1" cx="187.5" cy="346.51" r="13.09"/>
      <circle class="cls-1" cx="0" cy="121.37" r="13.09"/>
      <circle class="cls-1" cx="375" cy="121.37" r="13.09"/>
      <circle class="cls-1" cx="0" cy="225.14" r="13.09"/>
      <circle class="cls-1" cx="375" cy="225.14" r="13.09"/>
    </g>
  </g>
</svg>
